<svg xmlns="http://www.w3.org/2000/svg" xmlns:xlink="http://www.w3.org/1999/xlink" width="100%"  height="135" viewBox="0 0 375 135">
  <defs>
    <clipPath id="clip-iPhone_6_7_8_SE_1">
      <rect width="375" height="135"/>
    </clipPath>
  </defs>
  <g id="iPhone_6_7_8_SE_1" data-name="iPhone 6, 7, 8, SE – 1" clip-path="url(#clip-iPhone_6_7_8_SE_1)">
    <g id="_017-pegasus" data-name="017-pegasus" transform="translate(223.854 49.998)">
      <g id="Group_90" data-name="Group 90" transform="translate(0 0)">
        <path id="Path_1463" data-name="Path 1463" d="M16.54,31.642a.488.488,0,0,0-.382-.184h-5.7a3.106,3.106,0,0,0-.557.05V30.7a5.035,5.035,0,0,0-5.029-5.029H3.065V24.588a.488.488,0,1,0-.975,0v1.079H.488A.488.488,0,0,0,0,26.155v7.113a.488.488,0,0,0,.488.488h1.32a.488.488,0,0,0,.345-.143l1.585-1.585v2.725L.143,38.347a.488.488,0,0,0,.345.833h14.1a.488.488,0,0,0,.475-.377l1.567-6.746A.488.488,0,0,0,16.54,31.642ZM7.358,34.557V38.2H1.665L4.57,35.3a.488.488,0,0,0,.143-.345v-4.1A.488.488,0,0,0,3.88,30.5L1.605,32.78H.975V26.642h3.9A4.058,4.058,0,0,1,8.925,30.7v1.168A3.1,3.1,0,0,0,7.358,34.557Zm7.891-.851H12.5a.488.488,0,0,0,0,.975h2.52l-.3,1.273H11.98a.488.488,0,1,0,0,.975H14.5L14.2,38.2H8.333V34.557a2.127,2.127,0,0,1,2.124-2.124h5.087Z" transform="translate(0 -24.1)" fill="#ca7e65"/>
      </g>
    </g>
    <path id="Path_1493" data-name="Path 1493" d="M60.6,11.34A10.744,10.744,0,0,1,53,8.171a10.8,10.8,0,0,1-2.34-3.483A10.776,10.776,0,0,1,49.828.571l0-.571h-.569c-4.1,0-8.21.04-12.314.058s-8.21.07-12.314.1L18.471.239,12.314.328Q6.157.42,0,.571,6.157.722,12.314.815L18.471.9,24.629.98c4.1.033,8.21.083,12.314.1,3.919.018,7.838.05,11.757.057a11.912,11.912,0,0,0,.883,3.993A11.934,11.934,0,0,0,52.16,9.007a11.955,11.955,0,0,0,3.874,2.577,11.913,11.913,0,0,0,3.995.883l1.14,92.591.1,12.262c.053,4.087.093,8.175.165,12.262s.143,8.175.242,12.262q.15-6.131.242-12.262c.072-4.087.112-8.175.165-12.262l.1-12.262L61.166,11.91l0-.568Z" transform="translate(369.053 3.71) rotate(90)" fill="#ca7e65"/>
    <g id="_017-pegasus-2" data-name="017-pegasus" transform="translate(132.854 49.998)">
      <g id="Group_90-2" data-name="Group 90" transform="translate(0 0)">
        <path id="Path_1463-2" data-name="Path 1463" d="M.106,31.642a.488.488,0,0,1,.382-.184h5.7a3.106,3.106,0,0,1,.557.05V30.7a5.035,5.035,0,0,1,5.029-5.029h1.807V24.588a.488.488,0,0,1,.975,0v1.079h1.6a.488.488,0,0,1,.488.488v7.113a.488.488,0,0,1-.488.488h-1.32a.488.488,0,0,1-.345-.143l-1.585-1.585v2.725L16.5,38.347a.488.488,0,0,1-.345.833H2.055A.488.488,0,0,1,1.58,38.8L.013,32.056A.488.488,0,0,1,.106,31.642Zm9.183,2.915V38.2h5.693L12.076,35.3a.488.488,0,0,1-.143-.345v-4.1a.488.488,0,0,1,.833-.345l2.275,2.275h.63V26.642h-3.9A4.058,4.058,0,0,0,7.722,30.7v1.168A3.1,3.1,0,0,1,9.289,34.557ZM1.4,33.706H4.144a.488.488,0,1,1,0,.975H1.624l.3,1.273H4.667a.488.488,0,1,1,0,.975H2.146l.3,1.273H8.313V34.557a2.127,2.127,0,0,0-2.124-2.124H1.1Z" transform="translate(0 -24.1)" fill="#ca7e65"/>
      </g>
    </g>
    <path id="Path_19351" data-name="Path 19351" d="M60.6,11.34A10.743,10.743,0,0,1,53,8.171a10.8,10.8,0,0,1-2.34-3.483A10.776,10.776,0,0,1,49.828.571l0-.571h-.569c-4.1,0-8.21.04-12.314.058s-8.21.07-12.314.1L18.471.239,12.314.328Q6.157.421,0,.571,6.157.722,12.314.815L18.471.9,24.629.98c4.1.033,8.21.083,12.314.1,3.919.018,7.838.05,11.757.057a11.912,11.912,0,0,0,.883,3.993A11.933,11.933,0,0,0,52.16,9.007a11.955,11.955,0,0,0,3.874,2.577,11.913,11.913,0,0,0,3.995.883l1.14,92.591.1,12.262c.053,4.087.093,8.175.165,12.262s.143,8.175.242,12.262q.15-6.131.242-12.262c.072-4.087.112-8.175.165-12.262l.1-12.262L61.166,11.91l0-.568Z" transform="translate(7.209 126.9) rotate(-90)" fill="#ca7e65"/>
  </g>
</svg>
